<?xml version="1.0" encoding="UTF-8" standalone="no"?>
<svg
   id="icons"
   viewBox="0 0 512 512"
   version="1.1"
   sodipodi:docname="sparkles-red.svg"
   inkscape:version="1.1.1 (3bf5ae0d25, 2021-09-20)"
   xmlns:inkscape="http://www.inkscape.org/namespaces/inkscape"
   xmlns:sodipodi="http://sodipodi.sourceforge.net/DTD/sodipodi-0.dtd"
   xmlns="http://www.w3.org/2000/svg"
   xmlns:svg="http://www.w3.org/2000/svg">
  <defs
     id="defs11" />
  <sodipodi:namedview
     id="namedview9"
     pagecolor="#505050"
     bordercolor="#eeeeee"
     borderopacity="1"
     inkscape:pageshadow="0"
     inkscape:pageopacity="0"
     inkscape:pagecheckerboard="0"
     showgrid="false"
     inkscape:zoom="1.4042969"
     inkscape:cx="154.16968"
     inkscape:cy="256"
     inkscape:window-width="3440"
     inkscape:window-height="1417"
     inkscape:window-x="-8"
     inkscape:window-y="-8"
     inkscape:window-maximized="1"
     inkscape:current-layer="icons" />
  <path
     d="M 256.78564,510.5757 A 32.992414,32.854248 0 0 1 225.78551,489.41355 L 172.87015,352.38858 A 21.330844,21.241514 0 0 0 160.66402,340.23357 L 23.022958,287.50013 a 33.204925,33.065868 0 0 1 0,-61.74059 L 160.62417,173.06577 a 21.330844,21.241514 0 0 0 12.20614,-12.15502 l 52.9552,-137.064642 a 33.204925,33.065868 0 0 1 62.00025,0 l 52.91537,137.024962 a 21.330844,21.241514 0 0 0 12.20613,12.15501 l 136.80429,52.41602 a 33.855742,33.713959 0 0 1 22.08792,31.8755 32.96585,32.827795 0 0 1 -21.25115,30.18253 L 352.9471,340.19389 a 21.330844,21.241514 0 0 0 -12.20613,12.15501 l -52.95521,137.06465 a 32.992414,32.854248 0 0 1 -31.00012,21.16215 z m 88.78997,-337.06024 z"
     id="path2"
     style="stroke-width:1.32541;fill:#ffaaee" />
</svg>
