<?xml version="1.0" encoding="UTF-8" standalone="no"?>
<svg
   id="icons"
   viewBox="0 0 512 512"
   version="1.1"
   sodipodi:docname="sparkles-pink.svg"
   inkscape:version="1.1.1 (3bf5ae0d25, 2021-09-20)"
   xmlns:inkscape="http://www.inkscape.org/namespaces/inkscape"
   xmlns:sodipodi="http://sodipodi.sourceforge.net/DTD/sodipodi-0.dtd"
   xmlns="http://www.w3.org/2000/svg"
   xmlns:svg="http://www.w3.org/2000/svg">
  <defs
     id="defs11" />
  <sodipodi:namedview
     id="namedview9"
     pagecolor="#505050"
     bordercolor="#eeeeee"
     borderopacity="1"
     inkscape:pageshadow="0"
     inkscape:pageopacity="0"
     inkscape:pagecheckerboard="0"
     showgrid="false"
     inkscape:zoom="1.4042969"
     inkscape:cx="154.16968"
     inkscape:cy="256"
     inkscape:window-width="3440"
     inkscape:window-height="1417"
     inkscape:window-x="-8"
     inkscape:window-y="-8"
     inkscape:window-maximized="1"
     inkscape:current-layer="icons" />
  <path
     style="display:inline;fill:#ff8080;stroke:none;stroke-width:0.7121"
     d="m 248.2414,509.09283 c -7.80986,-2.10019 -15.70575,-8.04366 -19.58297,-14.74067 -0.95624,-1.65169 -13.98374,-34.72713 -28.95001,-73.50099 -15.69948,-40.67342 -28.09673,-71.78799 -29.30411,-73.54735 -1.15099,-1.67719 -3.31491,-3.85824 -4.8087,-4.84679 -1.4938,-0.98854 -33.91633,-13.75499 -72.0501,-28.36989 C 55.411754,299.47224 22.975139,286.99484 21.464149,286.35957 8.6485714,280.97147 0.33636124,265.86277 2.4998009,251.889 c 1.4930479,-9.64368 8.5713001,-19.7128 16.7651151,-23.8491 1.937259,-0.97794 34.285014,-13.55335 71.8839,-27.94534 37.598884,-14.392 69.689314,-26.78661 71.312064,-27.54358 3.53333,-1.64822 7.7448,-5.69201 9.50701,-9.12848 0.7042,-1.37326 13.34839,-33.73821 28.0982,-71.922113 14.74981,-38.183905 27.66082,-70.866306 28.69114,-72.627557 2.85435,-4.879308 8.1838,-9.6247429 14.08434,-12.5409458 4.77368,-2.3592835 6.04513,-2.6657679 12.26844,-2.9573337 5.8364,-0.2734388 7.67435,-0.077246 11.53306,1.2311065 8.52299,2.8898451 15.23427,8.529323 19.05963,16.015778 0.99234,1.942067 13.80388,34.609917 28.47009,72.59522 14.6662,37.985305 26.99051,69.670865 27.38735,70.412365 1.40128,2.61832 5.88013,7.03871 8.47109,8.36051 1.44293,0.73613 33.55766,13.1888 71.36606,27.67259 37.8084,14.4838 70.43944,27.19405 72.51341,28.24502 5.28894,2.68011 11.33214,8.9658 14.00115,14.56295 4.547,9.5355 4.58895,19.02678 0.12579,28.46413 -2.39287,5.05972 -8.80911,11.87687 -13.36682,14.20205 -1.66255,0.84817 -34.01301,13.40702 -71.88993,27.90857 -37.87692,14.50155 -70.14891,26.94129 -71.71553,27.64387 -3.93454,1.76452 -8.07635,6.03386 -10.0207,10.32924 -0.89824,1.98435 -13.37996,34.03798 -27.73717,71.23028 -14.3572,37.19231 -26.8799,69.15352 -27.82822,71.02492 -2.19054,4.32283 -8.19592,10.32879 -12.82733,12.82858 -7.35472,3.96969 -16.57173,5.09908 -24.41054,2.9911 z"
     id="path43" />
</svg>
